<svg viewBox="0 0 132.29 132.29">
  <g stroke-linejoin="round">
    <circle cx="66.146" cy="66.146" r="66.146" fill="#212121" style="paint-order:markers fill stroke"/>
    <path fill="#ededed" d="m56.773 70.98 22.879-13.209a1.3748 1.3748 30 0 1 2.0622 1.1906l-.000002 26.418a1.3748 1.3748 150 0 1-2.0622 1.1906l-22.879-13.209a1.3748 1.3748 90 0 1 0-2.3812z" style="paint-order:markers fill stroke"/>
    <path fill="#212121" d="M1 0H0l.30901699.95105652L0 0l-.80901699.58778525L0 0l-.80901699-.58778525L0 0l.30901699-.95105652L0 0Z" style="paint-order:markers fill stroke" transform="scale(.26458)"/>
    <path fill="#ff4c76" d="M81.378 54.596 53.161 70.887a2.4441 2.4441 30 0 1-3.6662-2.1167v-32.582a2.4441 2.4441 150 0 1 3.6662-2.1167l28.217 16.291a2.4441 2.4441 90 0 1 0 4.2333z" style="paint-order:markers fill stroke"/>
  </g>
</svg>
